<?xml version="1.0" encoding="UTF-8" standalone="no"?>
<!DOCTYPE svg PUBLIC "-//W3C//DTD SVG 1.1//EN"
 "http://www.w3.org/Graphics/SVG/1.1/DTD/svg11.dtd">
<!-- Generated by graphviz version 2.43.0 (0)
 -->
<!-- Title: %3 Pages: 1 -->
<svg width="543pt" height="127pt"
 viewBox="0.00 0.00 543.00 127.00" xmlns="http://www.w3.org/2000/svg" xmlns:xlink="http://www.w3.org/1999/xlink">
<g id="graph0" class="graph" transform="scale(1 1) rotate(0) translate(4 123)">
<title>%3</title>
<polygon fill="white" stroke="transparent" points="-4,4 -4,-123 539,-123 539,4 -4,4"/>
<!-- 138008285805824 -->
<g id="node1" class="node">
<title>138008285805824</title>
<polygon fill="none" stroke="black" points="453,-55.5 453,-91.5 533,-91.5 533,-55.5 453,-55.5"/>
<text text-anchor="middle" x="493" y="-69.8" font-family="Times,serif" font-size="14.00">data: 2.0</text>
</g>
<!-- 138008285805584 -->
<g id="node2" class="node">
<title>138008285805584</title>
<polygon fill="none" stroke="black" points="206,-82.5 206,-118.5 295,-118.5 295,-82.5 206,-82.5"/>
<text text-anchor="middle" x="250.5" y="-96.8" font-family="Times,serif" font-size="14.00">data: 10.0</text>
</g>
<!-- 138008285805728 -->
<g id="node3" class="node">
<title>138008285805728</title>
<polygon fill="none" stroke="black" points="451,-0.5 451,-36.5 535,-36.5 535,-0.5 451,-0.5"/>
<text text-anchor="middle" x="493" y="-14.8" font-family="Times,serif" font-size="14.00">data: &#45;3.0</text>
</g>
<!-- 138008282190016 -->
<g id="node4" class="node">
<title>138008282190016</title>
<polygon fill="none" stroke="black" points="90,-54.5 90,-90.5 170,-90.5 170,-54.5 90,-54.5"/>
<text text-anchor="middle" x="130" y="-68.8" font-family="Times,serif" font-size="14.00">data: 4.0</text>
</g>
<!-- 138008282190016&#45;&gt;138008285805584 -->
<g id="edge4" class="edge">
<title>138008282190016&#45;&gt;138008285805584</title>
<path fill="none" stroke="black" d="M170.13,-81.75C178.46,-83.71 187.38,-85.82 196.14,-87.89"/>
<polygon fill="black" stroke="black" points="195.37,-91.31 205.91,-90.2 196.98,-84.49 195.37,-91.31"/>
</g>
<!-- 138008282190064* -->
<g id="node7" class="node">
<title>138008282190064*</title>
<ellipse fill="none" stroke="black" cx="250.5" cy="-45.5" rx="27" ry="18"/>
<text text-anchor="middle" x="250.5" y="-41.8" font-family="Times,serif" font-size="14.00">*</text>
</g>
<!-- 138008282190016&#45;&gt;138008282190064* -->
<g id="edge5" class="edge">
<title>138008282190016&#45;&gt;138008282190064*</title>
<path fill="none" stroke="black" d="M170.13,-63.58C184.56,-60.3 200.8,-56.6 214.81,-53.4"/>
<polygon fill="black" stroke="black" points="215.59,-56.82 224.56,-51.18 214.03,-49.99 215.59,-56.82"/>
</g>
<!-- 138008282190016+ -->
<g id="node5" class="node">
<title>138008282190016+</title>
<ellipse fill="none" stroke="black" cx="27" cy="-72.5" rx="27" ry="18"/>
<text text-anchor="middle" x="27" y="-68.8" font-family="Times,serif" font-size="14.00">+</text>
</g>
<!-- 138008282190016+&#45;&gt;138008282190016 -->
<g id="edge1" class="edge">
<title>138008282190016+&#45;&gt;138008282190016</title>
<path fill="none" stroke="black" d="M54.01,-72.5C61.82,-72.5 70.67,-72.5 79.48,-72.5"/>
<polygon fill="black" stroke="black" points="79.73,-76 89.73,-72.5 79.73,-69 79.73,-76"/>
</g>
<!-- 138008282190064 -->
<g id="node6" class="node">
<title>138008282190064</title>
<polygon fill="none" stroke="black" points="331,-27.5 331,-63.5 415,-63.5 415,-27.5 331,-27.5"/>
<text text-anchor="middle" x="373" y="-41.8" font-family="Times,serif" font-size="14.00">data: &#45;6.0</text>
</g>
<!-- 138008282190064&#45;&gt;138008285805824 -->
<g id="edge6" class="edge">
<title>138008282190064&#45;&gt;138008285805824</title>
<path fill="none" stroke="black" d="M415.27,-55.29C424.25,-57.42 433.84,-59.7 443.08,-61.89"/>
<polygon fill="black" stroke="black" points="442.4,-65.33 452.93,-64.23 444.01,-58.52 442.4,-65.33"/>
</g>
<!-- 138008282190064&#45;&gt;138008285805728 -->
<g id="edge3" class="edge">
<title>138008282190064&#45;&gt;138008285805728</title>
<path fill="none" stroke="black" d="M415.27,-36.06C423.58,-34.15 432.41,-32.13 441.01,-30.17"/>
<polygon fill="black" stroke="black" points="441.98,-33.53 450.95,-27.89 440.42,-26.71 441.98,-33.53"/>
</g>
<!-- 138008282190064*&#45;&gt;138008282190064 -->
<g id="edge2" class="edge">
<title>138008282190064*&#45;&gt;138008282190064</title>
<path fill="none" stroke="black" d="M277.65,-45.5C290.24,-45.5 305.81,-45.5 320.64,-45.5"/>
<polygon fill="black" stroke="black" points="320.74,-49 330.74,-45.5 320.74,-42 320.74,-49"/>
</g>
</g>
</svg>
