<?xml version="1.0" encoding="UTF-8" standalone="no"?>
<!DOCTYPE svg PUBLIC "-//W3C//DTD SVG 1.1//EN"
 "http://www.w3.org/Graphics/SVG/1.1/DTD/svg11.dtd">
<!-- Generated by graphviz version 2.43.0 (0)
 -->
<!-- Title: %3 Pages: 1 -->
<svg width="831pt" height="127pt"
 viewBox="0.00 0.00 831.00 127.00" xmlns="http://www.w3.org/2000/svg" xmlns:xlink="http://www.w3.org/1999/xlink">
<g id="graph0" class="graph" transform="scale(1 1) rotate(0) translate(4 123)">
<title>%3</title>
<polygon fill="white" stroke="transparent" points="-4,4 -4,-123 827,-123 827,4 -4,4"/>
<!-- 137127306384944 -->
<g id="node1" class="node">
<title>137127306384944</title>
<polygon fill="none" stroke="black" points="318,-27.5 318,-63.5 508,-63.5 508,-27.5 318,-27.5"/>
<text text-anchor="middle" x="330.5" y="-41.8" font-family="Times,serif" font-size="14.00">e</text>
<polyline fill="none" stroke="black" points="343,-27.5 343,-63.5 "/>
<text text-anchor="middle" x="385" y="-41.8" font-family="Times,serif" font-size="14.00">data: &#45;6.0</text>
<polyline fill="none" stroke="black" points="427,-27.5 427,-63.5 "/>
<text text-anchor="middle" x="467.5" y="-41.8" font-family="Times,serif" font-size="14.00">grad: 0.0</text>
</g>
<!-- 137127306384992+ -->
<g id="node4" class="node">
<title>137127306384992+</title>
<ellipse fill="none" stroke="black" cx="573" cy="-72.5" rx="27" ry="18"/>
<text text-anchor="middle" x="573" y="-68.8" font-family="Times,serif" font-size="14.00">+</text>
</g>
<!-- 137127306384944&#45;&gt;137127306384992+ -->
<g id="edge3" class="edge">
<title>137127306384944&#45;&gt;137127306384992+</title>
<path fill="none" stroke="black" d="M508.19,-61.6C518.25,-63.31 527.96,-64.97 536.65,-66.46"/>
<polygon fill="black" stroke="black" points="536.24,-69.94 546.69,-68.17 537.42,-63.04 536.24,-69.94"/>
</g>
<!-- 137127306384944* -->
<g id="node2" class="node">
<title>137127306384944*</title>
<ellipse fill="none" stroke="black" cx="253" cy="-45.5" rx="27" ry="18"/>
<text text-anchor="middle" x="253" y="-41.8" font-family="Times,serif" font-size="14.00">*</text>
</g>
<!-- 137127306384944*&#45;&gt;137127306384944 -->
<g id="edge1" class="edge">
<title>137127306384944*&#45;&gt;137127306384944</title>
<path fill="none" stroke="black" d="M280.09,-45.5C288.18,-45.5 297.63,-45.5 307.7,-45.5"/>
<polygon fill="black" stroke="black" points="307.94,-49 317.94,-45.5 307.94,-42 307.94,-49"/>
</g>
<!-- 137127306384992 -->
<g id="node3" class="node">
<title>137127306384992</title>
<polygon fill="none" stroke="black" points="636,-54.5 636,-90.5 823,-90.5 823,-54.5 636,-54.5"/>
<text text-anchor="middle" x="649" y="-68.8" font-family="Times,serif" font-size="14.00">d</text>
<polyline fill="none" stroke="black" points="662,-54.5 662,-90.5 "/>
<text text-anchor="middle" x="702" y="-68.8" font-family="Times,serif" font-size="14.00">data: 4.0</text>
<polyline fill="none" stroke="black" points="742,-54.5 742,-90.5 "/>
<text text-anchor="middle" x="782.5" y="-68.8" font-family="Times,serif" font-size="14.00">grad: 0.0</text>
</g>
<!-- 137127306384992+&#45;&gt;137127306384992 -->
<g id="edge2" class="edge">
<title>137127306384992+&#45;&gt;137127306384992</title>
<path fill="none" stroke="black" d="M600.21,-72.5C607.73,-72.5 616.43,-72.5 625.67,-72.5"/>
<polygon fill="black" stroke="black" points="625.89,-76 635.89,-72.5 625.89,-69 625.89,-76"/>
</g>
<!-- 137127310000080 -->
<g id="node5" class="node">
<title>137127310000080</title>
<polygon fill="none" stroke="black" points="2,-55.5 2,-91.5 188,-91.5 188,-55.5 2,-55.5"/>
<text text-anchor="middle" x="14.5" y="-69.8" font-family="Times,serif" font-size="14.00">x</text>
<polyline fill="none" stroke="black" points="27,-55.5 27,-91.5 "/>
<text text-anchor="middle" x="67" y="-69.8" font-family="Times,serif" font-size="14.00">data: 2.0</text>
<polyline fill="none" stroke="black" points="107,-55.5 107,-91.5 "/>
<text text-anchor="middle" x="147.5" y="-69.8" font-family="Times,serif" font-size="14.00">grad: 0.0</text>
</g>
<!-- 137127310000080&#45;&gt;137127306384944* -->
<g id="edge6" class="edge">
<title>137127310000080&#45;&gt;137127306384944*</title>
<path fill="none" stroke="black" d="M188.1,-56.97C198.13,-55.17 207.85,-53.42 216.55,-51.86"/>
<polygon fill="black" stroke="black" points="217.38,-55.27 226.6,-50.06 216.14,-48.38 217.38,-55.27"/>
</g>
<!-- 137127309992400 -->
<g id="node6" class="node">
<title>137127309992400</title>
<polygon fill="none" stroke="black" points="316,-82.5 316,-118.5 510,-118.5 510,-82.5 316,-82.5"/>
<text text-anchor="middle" x="328" y="-96.8" font-family="Times,serif" font-size="14.00">z</text>
<polyline fill="none" stroke="black" points="340,-82.5 340,-118.5 "/>
<text text-anchor="middle" x="384.5" y="-96.8" font-family="Times,serif" font-size="14.00">data: 10.0</text>
<polyline fill="none" stroke="black" points="429,-82.5 429,-118.5 "/>
<text text-anchor="middle" x="469.5" y="-96.8" font-family="Times,serif" font-size="14.00">grad: 0.0</text>
</g>
<!-- 137127309992400&#45;&gt;137127306384992+ -->
<g id="edge5" class="edge">
<title>137127309992400&#45;&gt;137127306384992+</title>
<path fill="none" stroke="black" d="M510.01,-83.49C519.35,-81.83 528.37,-80.23 536.49,-78.79"/>
<polygon fill="black" stroke="black" points="537.37,-82.19 546.6,-77 536.15,-75.3 537.37,-82.19"/>
</g>
<!-- 137127309999072 -->
<g id="node7" class="node">
<title>137127309999072</title>
<polygon fill="none" stroke="black" points="0,-0.5 0,-36.5 190,-36.5 190,-0.5 0,-0.5"/>
<text text-anchor="middle" x="12.5" y="-14.8" font-family="Times,serif" font-size="14.00">y</text>
<polyline fill="none" stroke="black" points="25,-0.5 25,-36.5 "/>
<text text-anchor="middle" x="67" y="-14.8" font-family="Times,serif" font-size="14.00">data: &#45;3.0</text>
<polyline fill="none" stroke="black" points="109,-0.5 109,-36.5 "/>
<text text-anchor="middle" x="149.5" y="-14.8" font-family="Times,serif" font-size="14.00">grad: 0.0</text>
</g>
<!-- 137127309999072&#45;&gt;137127306384944* -->
<g id="edge4" class="edge">
<title>137127309999072&#45;&gt;137127306384944*</title>
<path fill="none" stroke="black" d="M190.34,-34.83C199.62,-36.44 208.58,-37.99 216.66,-39.38"/>
<polygon fill="black" stroke="black" points="216.27,-42.87 226.72,-41.12 217.46,-35.97 216.27,-42.87"/>
</g>
</g>
</svg>
